<svg xmlns="http://www.w3.org/2000/svg" id="export" class="canvas" preserveAspectRatio="xMidYMid meet" style="width: 327px; height: 856px;" width="139" height="668"><rect id="background" fill="#fff" pointer-events="all" width="139" height="668"/><g id="origin" transform="translate(6.301953125000001, 6.301953125000001) scale(1)"><g id="clusters" class="clusters"/><g id="edge-paths" class="edge-paths"><defs><marker id="arrowhead-vee" viewBox="0 0 10 10" refX="9" refY="5" markerUnits="strokeWidth" markerWidth="8" markerHeight="6" orient="auto" style="fill: rgb(0, 0, 0);"><path d="M 0 0 L 10 5 L 0 10 L 4 5 z" style="stroke-width: 1;"/></marker><marker id="arrowhead-vee-select" viewBox="0 0 10 10" refX="9" refY="5" markerUnits="strokeWidth" markerWidth="8" markerHeight="6" orient="auto" style="fill: rgb(238, 0, 0);"><path d="M 0 0 L 10 5 L 0 10 L 4 5 z" style="stroke-width: 1;"/></marker></defs><path id="edge-input.1" class="edge-path" d="M51.1640625,21L51.1640625,22.666666666666668C51.1640625,24.333333333333332,51.1640625,27.666666666666668,51.1640625,32.833333333333336C51.1640625,38,51.1640625,45,51.1640625,52C51.1640625,59,51.1640625,66,51.1640625,71.16666666666667C51.1640625,76.33333333333333,51.1640625,79.66666666666667,51.1640625,81.33333333333333L51.1640625,83" style="stroke: rgb(0, 0, 0); stroke-width: 1px; fill: none; marker-end: url(&quot;#arrowhead-vee&quot;);"/><path id="edge-23" class="edge-path" d="M51.1640625,136L51.1640625,137.66666666666666C51.1640625,139.33333333333334,51.1640625,142.66666666666666,51.1640625,146C51.1640625,149.33333333333334,51.1640625,152.66666666666666,51.1640625,154.33333333333334L51.1640625,156" style="stroke: rgb(0, 0, 0); stroke-width: 1px; fill: none; marker-end: url(&quot;#arrowhead-vee&quot;);"/><path id="edge-24" class="edge-path" d="M51.1640625,177.0947265625L51.1640625,178.76139322916666C51.1640625,180.42805989583334,51.1640625,183.76139322916666,51.1640625,187.0947265625C51.1640625,190.42805989583334,51.1640625,193.76139322916666,51.1640625,195.42805989583334L51.1640625,197.0947265625" style="stroke: rgb(0, 0, 0); stroke-width: 1px; fill: none; marker-end: url(&quot;#arrowhead-vee&quot;);"/><path id="edge-35" class="edge-path" d="M51.1640625,250.0947265625L51.1640625,251.76139322916666C51.1640625,253.42805989583334,51.1640625,256.7613932291667,51.1640625,260.0947265625C51.1640625,263.4280598958333,51.1640625,266.7613932291667,51.1640625,268.4280598958333L51.1640625,270.0947265625" style="stroke: rgb(0, 0, 0); stroke-width: 1px; fill: none; marker-end: url(&quot;#arrowhead-vee&quot;);"/><path id="edge-27" class="edge-path" d="M51.1640625,291.189453125L51.1640625,292.8561197916667C51.1640625,294.5227864583333,51.1640625,297.8561197916667,51.1640625,301.189453125C51.1640625,304.5227864583333,51.1640625,307.8561197916667,51.1640625,309.5227864583333L51.1640625,311.189453125" style="stroke: rgb(0, 0, 0); stroke-width: 1px; fill: none; marker-end: url(&quot;#arrowhead-vee&quot;);"/><path id="edge-38" class="edge-path" d="M51.1640625,364.189453125L51.1640625,365.8561197916667C51.1640625,367.5227864583333,51.1640625,370.8561197916667,51.1640625,374.189453125C51.1640625,377.5227864583333,51.1640625,380.8561197916667,51.1640625,382.5227864583333L51.1640625,384.189453125" style="stroke: rgb(0, 0, 0); stroke-width: 1px; fill: none; marker-end: url(&quot;#arrowhead-vee&quot;);"/><path id="edge-30" class="edge-path" d="M51.1640625,405.2841796875L51.1640625,406.9508463541667C51.1640625,408.6175130208333,51.1640625,411.9508463541667,51.1640625,415.2841796875C51.1640625,418.6175130208333,51.1640625,421.9508463541667,51.1640625,423.6175130208333L51.1640625,425.2841796875" style="stroke: rgb(0, 0, 0); stroke-width: 1px; fill: none; marker-end: url(&quot;#arrowhead-vee&quot;);"/><path id="edge-41" class="edge-path" d="M51.1640625,478.2841796875L51.1640625,479.9508463541667C51.1640625,481.6175130208333,51.1640625,484.9508463541667,51.1640625,488.2841796875C51.1640625,491.6175130208333,51.1640625,494.9508463541667,51.1640625,496.6175130208333L51.1640625,498.2841796875" style="stroke: rgb(0, 0, 0); stroke-width: 1px; fill: none; marker-end: url(&quot;#arrowhead-vee&quot;);"/><path id="edge-33" class="edge-path" d="M51.1640625,519.37890625L51.1640625,521.0455729166666C51.1640625,522.7122395833334,51.1640625,526.0455729166666,51.1640625,529.37890625C51.1640625,532.7122395833334,51.1640625,536.0455729166666,51.1640625,537.7122395833334L51.1640625,539.37890625" style="stroke: rgb(0, 0, 0); stroke-width: 1px; fill: none; marker-end: url(&quot;#arrowhead-vee&quot;);"/><path id="edge-34" class="edge-path" d="M51.1640625,592.37890625L51.1640625,595.87890625C51.1640625,599.37890625,51.1640625,606.37890625,51.1640625,613.37890625C51.1640625,620.37890625,51.1640625,627.37890625,51.1640625,630.87890625L51.1640625,634.37890625" style="stroke: rgb(0, 0, 0); stroke-width: 1px; fill: none; marker-end: url(&quot;#arrowhead-vee&quot;);"/></g><g id="edge-labels" class="edge-labels"><text class="edge-label" id="edge-label-edge-input.1" transform="translate(56.1640625,46)" style="opacity: 1; font-family: -apple-system, BlinkMacSystemFont, &quot;Segoe WPC&quot;, &quot;Segoe UI&quot;, Ubuntu, &quot;Droid Sans&quot;, sans-serif, &quot;PingFang SC&quot;; font-size: 10px;"><tspan xml:space="preserve" dy="1em" x="1">1×3×256×256</tspan></text><text class="edge-label" id="edge-label-edge-34" transform="translate(56.1640625,607.37890625)" style="opacity: 1; font-family: -apple-system, BlinkMacSystemFont, &quot;Segoe WPC&quot;, &quot;Segoe UI&quot;, Ubuntu, &quot;Droid Sans&quot;, sans-serif, &quot;PingFang SC&quot;; font-size: 10px;"><tspan xml:space="preserve" dy="1em" x="1">1×1×30×30</tspan></text></g><g id="nodes" class="nodes"><g id="input-name-input.1" class="node graph-input" transform="translate(26.8046875,0)" style="opacity: 1;"><g class="node-item graph-item-input" transform="translate(0,0)"><path d="M5,0h38.71875a5,5 0 0 1 5,5v11a5,5 0 0 1 -5,5h-38.71875a5,5 0 0 1 -5,-5v-11a5,5 0 0 1 5,-5z" style="stroke: rgb(0, 0, 0); fill: rgb(238, 238, 238); stroke-width: 0;"/><text x="6" y="15" style="font-family: -apple-system, BlinkMacSystemFont, &quot;Segoe WPC&quot;, &quot;Segoe UI&quot;, Ubuntu, &quot;Droid Sans&quot;, sans-serif, &quot;PingFang SC&quot;; font-size: 11px; text-rendering: geometricprecision;">input.1</text><title>float32[1,3,256,256]</title></g><path class="node border" d="M5,0h38.71875a5,5 0 0 1 5,5v11a5,5 0 0 1 -5,5h-38.71875a5,5 0 0 1 -5,-5v-11a5,5 0 0 1 5,-5z" style="stroke: rgb(51, 51, 51); fill: none; stroke-width: 1px;"/></g><g id="node-name-Conv_0" class="node graph-node" transform="translate(7.7265625,83)" style="opacity: 1;"><g class="node-item node-item-type node-item-type-layer" transform="translate(0,0)"><path d="M5,0h76.875a5,5 0 0 1 5,5v16a0,0 0 0 1 0,0h-86.875a0,0 0 0 1 0,0v-16a5,5 0 0 1 5,-5z" style="stroke: rgb(0, 0, 0); fill: rgb(51, 85, 136); stroke-width: 0;"/><text x="6" y="15" style="font-family: -apple-system, BlinkMacSystemFont, &quot;Segoe WPC&quot;, &quot;Segoe UI&quot;, Ubuntu, &quot;Droid Sans&quot;, sans-serif, &quot;PingFang SC&quot;; font-size: 11px; text-rendering: geometricprecision; fill: rgb(255, 255, 255);">Conv</text><title>Conv_0</title></g><g class="node-attribute" transform="translate(0,21)"><path d="M0,0h86.875a0,0 0 0 1 0,0v27a5,5 0 0 1 -5,5h-76.875a5,5 0 0 1 -5,-5v-27a0,0 0 0 1 0,0z" style="stroke: rgb(0, 0, 0); fill: rgb(255, 255, 255); stroke-width: 0;"/><text id="initializer-model.0.weight" xml:space="preserve" x="6" y="13" style="font-family: -apple-system, BlinkMacSystemFont, &quot;Segoe WPC&quot;, &quot;Segoe UI&quot;, Ubuntu, &quot;Droid Sans&quot;, sans-serif, &quot;PingFang SC&quot;; font-size: 9px; font-weight: normal; text-rendering: geometricprecision;"><title>float32[64,3,4,4]</title><tspan style="font-weight: bold;">W</tspan><tspan>〈64×3×4×4〉</tspan></text><text id="initializer-model.0.bias" xml:space="preserve" x="6" y="26" style="font-family: -apple-system, BlinkMacSystemFont, &quot;Segoe WPC&quot;, &quot;Segoe UI&quot;, Ubuntu, &quot;Droid Sans&quot;, sans-serif, &quot;PingFang SC&quot;; font-size: 9px; font-weight: normal; text-rendering: geometricprecision;"><title>float32[64]</title><tspan style="font-weight: bold;">B</tspan><tspan>〈64〉</tspan></text><line class="node" x1="0" x2="86.875" y1="0" y2="0" style="stroke: rgb(51, 51, 51); fill: none; stroke-width: 1px;"/></g><path class="node border" d="M5,0h76.875a5,5 0 0 1 5,5v43a5,5 0 0 1 -5,5h-76.875a5,5 0 0 1 -5,-5v-43a5,5 0 0 1 5,-5z" style="stroke: rgb(51, 51, 51); fill: none; stroke-width: 1px;"/></g><g id="node-name-LeakyRelu_1" class="node graph-node" transform="translate(17.4765625,156)" style="opacity: 1;"><g class="node-item node-item-type node-item-type-activation" transform="translate(0,0)"><path d="M5,0h57.375a5,5 0 0 1 5,5v11.0947265625a5,5 0 0 1 -5,5h-57.375a5,5 0 0 1 -5,-5v-11.0947265625a5,5 0 0 1 5,-5z" style="stroke: rgb(0, 0, 0); fill: rgb(112, 41, 33); stroke-width: 0;"/><text x="6" y="15" style="font-family: -apple-system, BlinkMacSystemFont, &quot;Segoe WPC&quot;, &quot;Segoe UI&quot;, Ubuntu, &quot;Droid Sans&quot;, sans-serif, &quot;PingFang SC&quot;; font-size: 11px; text-rendering: geometricprecision; fill: rgb(255, 255, 255);">LeakyRelu</text><title>LeakyRelu_1</title></g><path class="node border" d="M5,0h57.375a5,5 0 0 1 5,5v11.0947265625a5,5 0 0 1 -5,5h-57.375a5,5 0 0 1 -5,-5v-11.0947265625a5,5 0 0 1 5,-5z" style="stroke: rgb(51, 51, 51); fill: none; stroke-width: 1px;"/></g><g id="node-name-Conv_2" class="node graph-node" transform="translate(2.6953125,197.0947265625)" style="opacity: 1;"><g class="node-item node-item-type node-item-type-layer" transform="translate(0,0)"><path d="M5,0h86.9375a5,5 0 0 1 5,5v16a0,0 0 0 1 0,0h-96.9375a0,0 0 0 1 0,0v-16a5,5 0 0 1 5,-5z" style="stroke: rgb(0, 0, 0); fill: rgb(51, 85, 136); stroke-width: 0;"/><text x="6" y="15" style="font-family: -apple-system, BlinkMacSystemFont, &quot;Segoe WPC&quot;, &quot;Segoe UI&quot;, Ubuntu, &quot;Droid Sans&quot;, sans-serif, &quot;PingFang SC&quot;; font-size: 11px; text-rendering: geometricprecision; fill: rgb(255, 255, 255);">Conv</text><title>Conv_2</title></g><g class="node-attribute" transform="translate(0,21)"><path d="M0,0h96.9375a0,0 0 0 1 0,0v27a5,5 0 0 1 -5,5h-86.9375a5,5 0 0 1 -5,-5v-27a0,0 0 0 1 0,0z" style="stroke: rgb(0, 0, 0); fill: rgb(255, 255, 255); stroke-width: 0;"/><text id="initializer-36" xml:space="preserve" x="6" y="13" style="font-family: -apple-system, BlinkMacSystemFont, &quot;Segoe WPC&quot;, &quot;Segoe UI&quot;, Ubuntu, &quot;Droid Sans&quot;, sans-serif, &quot;PingFang SC&quot;; font-size: 9px; font-weight: normal; text-rendering: geometricprecision;"><title>float32[128,64,4,4]</title><tspan style="font-weight: bold;">W</tspan><tspan>〈128×64×4×4〉</tspan></text><text id="initializer-37" xml:space="preserve" x="6" y="26" style="font-family: -apple-system, BlinkMacSystemFont, &quot;Segoe WPC&quot;, &quot;Segoe UI&quot;, Ubuntu, &quot;Droid Sans&quot;, sans-serif, &quot;PingFang SC&quot;; font-size: 9px; font-weight: normal; text-rendering: geometricprecision;"><title>float32[128]</title><tspan style="font-weight: bold;">B</tspan><tspan>〈128〉</tspan></text><line class="node" x1="0" x2="96.9375" y1="0" y2="0" style="stroke: rgb(51, 51, 51); fill: none; stroke-width: 1px;"/></g><path class="node border" d="M5,0h86.9375a5,5 0 0 1 5,5v43a5,5 0 0 1 -5,5h-86.9375a5,5 0 0 1 -5,-5v-43a5,5 0 0 1 5,-5z" style="stroke: rgb(51, 51, 51); fill: none; stroke-width: 1px;"/></g><g id="node-name-LeakyRelu_3" class="node graph-node" transform="translate(17.4765625,270.0947265625)" style="opacity: 1;"><g class="node-item node-item-type node-item-type-activation" transform="translate(0,0)"><path d="M5,0h57.375a5,5 0 0 1 5,5v11.0947265625a5,5 0 0 1 -5,5h-57.375a5,5 0 0 1 -5,-5v-11.0947265625a5,5 0 0 1 5,-5z" style="stroke: rgb(0, 0, 0); fill: rgb(112, 41, 33); stroke-width: 0;"/><text x="6" y="15" style="font-family: -apple-system, BlinkMacSystemFont, &quot;Segoe WPC&quot;, &quot;Segoe UI&quot;, Ubuntu, &quot;Droid Sans&quot;, sans-serif, &quot;PingFang SC&quot;; font-size: 11px; text-rendering: geometricprecision; fill: rgb(255, 255, 255);">LeakyRelu</text><title>LeakyRelu_3</title></g><path class="node border" d="M5,0h57.375a5,5 0 0 1 5,5v11.0947265625a5,5 0 0 1 -5,5h-57.375a5,5 0 0 1 -5,-5v-11.0947265625a5,5 0 0 1 5,-5z" style="stroke: rgb(51, 51, 51); fill: none; stroke-width: 1px;"/></g><g id="node-name-Conv_4" class="node graph-node" transform="translate(0,311.189453125)" style="opacity: 1;"><g class="node-item node-item-type node-item-type-layer" transform="translate(0,0)"><path d="M5,0h92.328125a5,5 0 0 1 5,5v16a0,0 0 0 1 0,0h-102.328125a0,0 0 0 1 0,0v-16a5,5 0 0 1 5,-5z" style="stroke: rgb(0, 0, 0); fill: rgb(51, 85, 136); stroke-width: 0;"/><text x="6" y="15" style="font-family: -apple-system, BlinkMacSystemFont, &quot;Segoe WPC&quot;, &quot;Segoe UI&quot;, Ubuntu, &quot;Droid Sans&quot;, sans-serif, &quot;PingFang SC&quot;; font-size: 11px; text-rendering: geometricprecision; fill: rgb(255, 255, 255);">Conv</text><title>Conv_4</title></g><g class="node-attribute" transform="translate(0,21)"><path d="M0,0h102.328125a0,0 0 0 1 0,0v27a5,5 0 0 1 -5,5h-92.328125a5,5 0 0 1 -5,-5v-27a0,0 0 0 1 0,0z" style="stroke: rgb(0, 0, 0); fill: rgb(255, 255, 255); stroke-width: 0;"/><text id="initializer-39" xml:space="preserve" x="6" y="13" style="font-family: -apple-system, BlinkMacSystemFont, &quot;Segoe WPC&quot;, &quot;Segoe UI&quot;, Ubuntu, &quot;Droid Sans&quot;, sans-serif, &quot;PingFang SC&quot;; font-size: 9px; font-weight: normal; text-rendering: geometricprecision;"><title>float32[256,128,4,4]</title><tspan style="font-weight: bold;">W</tspan><tspan>〈256×128×4×4〉</tspan></text><text id="initializer-40" xml:space="preserve" x="6" y="26" style="font-family: -apple-system, BlinkMacSystemFont, &quot;Segoe WPC&quot;, &quot;Segoe UI&quot;, Ubuntu, &quot;Droid Sans&quot;, sans-serif, &quot;PingFang SC&quot;; font-size: 9px; font-weight: normal; text-rendering: geometricprecision;"><title>float32[256]</title><tspan style="font-weight: bold;">B</tspan><tspan>〈256〉</tspan></text><line class="node" x1="0" x2="102.328125" y1="0" y2="0" style="stroke: rgb(51, 51, 51); fill: none; stroke-width: 1px;"/></g><path class="node border" d="M5,0h92.328125a5,5 0 0 1 5,5v43a5,5 0 0 1 -5,5h-92.328125a5,5 0 0 1 -5,-5v-43a5,5 0 0 1 5,-5z" style="stroke: rgb(51, 51, 51); fill: none; stroke-width: 1px;"/></g><g id="node-name-LeakyRelu_5" class="node graph-node" transform="translate(17.4765625,384.189453125)" style="opacity: 1;"><g class="node-item node-item-type node-item-type-activation" transform="translate(0,0)"><path d="M5,0h57.375a5,5 0 0 1 5,5v11.0947265625a5,5 0 0 1 -5,5h-57.375a5,5 0 0 1 -5,-5v-11.0947265625a5,5 0 0 1 5,-5z" style="stroke: rgb(0, 0, 0); fill: rgb(112, 41, 33); stroke-width: 0;"/><text x="6" y="15" style="font-family: -apple-system, BlinkMacSystemFont, &quot;Segoe WPC&quot;, &quot;Segoe UI&quot;, Ubuntu, &quot;Droid Sans&quot;, sans-serif, &quot;PingFang SC&quot;; font-size: 11px; text-rendering: geometricprecision; fill: rgb(255, 255, 255);">LeakyRelu</text><title>LeakyRelu_5</title></g><path class="node border" d="M5,0h57.375a5,5 0 0 1 5,5v11.0947265625a5,5 0 0 1 -5,5h-57.375a5,5 0 0 1 -5,-5v-11.0947265625a5,5 0 0 1 5,-5z" style="stroke: rgb(51, 51, 51); fill: none; stroke-width: 1px;"/></g><g id="node-name-Conv_6" class="node graph-node" transform="translate(0.09375,425.2841796875)" style="opacity: 1;"><g class="node-item node-item-type node-item-type-layer" transform="translate(0,0)"><path d="M5,0h92.140625a5,5 0 0 1 5,5v16a0,0 0 0 1 0,0h-102.140625a0,0 0 0 1 0,0v-16a5,5 0 0 1 5,-5z" style="stroke: rgb(0, 0, 0); fill: rgb(51, 85, 136); stroke-width: 0;"/><text x="6" y="15" style="font-family: -apple-system, BlinkMacSystemFont, &quot;Segoe WPC&quot;, &quot;Segoe UI&quot;, Ubuntu, &quot;Droid Sans&quot;, sans-serif, &quot;PingFang SC&quot;; font-size: 11px; text-rendering: geometricprecision; fill: rgb(255, 255, 255);">Conv</text><title>Conv_6</title></g><g class="node-attribute" transform="translate(0,21)"><path d="M0,0h102.140625a0,0 0 0 1 0,0v27a5,5 0 0 1 -5,5h-92.140625a5,5 0 0 1 -5,-5v-27a0,0 0 0 1 0,0z" style="stroke: rgb(0, 0, 0); fill: rgb(255, 255, 255); stroke-width: 0;"/><text id="initializer-42" xml:space="preserve" x="6" y="13" style="font-family: -apple-system, BlinkMacSystemFont, &quot;Segoe WPC&quot;, &quot;Segoe UI&quot;, Ubuntu, &quot;Droid Sans&quot;, sans-serif, &quot;PingFang SC&quot;; font-size: 9px; font-weight: normal; text-rendering: geometricprecision;"><title>float32[512,256,4,4]</title><tspan style="font-weight: bold;">W</tspan><tspan>〈512×256×4×4〉</tspan></text><text id="initializer-43" xml:space="preserve" x="6" y="26" style="font-family: -apple-system, BlinkMacSystemFont, &quot;Segoe WPC&quot;, &quot;Segoe UI&quot;, Ubuntu, &quot;Droid Sans&quot;, sans-serif, &quot;PingFang SC&quot;; font-size: 9px; font-weight: normal; text-rendering: geometricprecision;"><title>float32[512]</title><tspan style="font-weight: bold;">B</tspan><tspan>〈512〉</tspan></text><line class="node" x1="0" x2="102.140625" y1="0" y2="0" style="stroke: rgb(51, 51, 51); fill: none; stroke-width: 1px;"/></g><path class="node border" d="M5,0h92.140625a5,5 0 0 1 5,5v43a5,5 0 0 1 -5,5h-92.140625a5,5 0 0 1 -5,-5v-43a5,5 0 0 1 5,-5z" style="stroke: rgb(51, 51, 51); fill: none; stroke-width: 1px;"/></g><g id="node-name-LeakyRelu_7" class="node graph-node" transform="translate(17.4765625,498.2841796875)" style="opacity: 1;"><g class="node-item node-item-type node-item-type-activation" transform="translate(0,0)"><path d="M5,0h57.375a5,5 0 0 1 5,5v11.0947265625a5,5 0 0 1 -5,5h-57.375a5,5 0 0 1 -5,-5v-11.0947265625a5,5 0 0 1 5,-5z" style="stroke: rgb(0, 0, 0); fill: rgb(112, 41, 33); stroke-width: 0;"/><text x="6" y="15" style="font-family: -apple-system, BlinkMacSystemFont, &quot;Segoe WPC&quot;, &quot;Segoe UI&quot;, Ubuntu, &quot;Droid Sans&quot;, sans-serif, &quot;PingFang SC&quot;; font-size: 11px; text-rendering: geometricprecision; fill: rgb(255, 255, 255);">LeakyRelu</text><title>LeakyRelu_7</title></g><path class="node border" d="M5,0h57.375a5,5 0 0 1 5,5v11.0947265625a5,5 0 0 1 -5,5h-57.375a5,5 0 0 1 -5,-5v-11.0947265625a5,5 0 0 1 5,-5z" style="stroke: rgb(51, 51, 51); fill: none; stroke-width: 1px;"/></g><g id="node-name-Conv_8" class="node graph-node" transform="translate(6.53125,539.37890625)" style="opacity: 1;"><g class="node-item node-item-type node-item-type-layer" transform="translate(0,0)"><path d="M5,0h79.265625a5,5 0 0 1 5,5v16a0,0 0 0 1 0,0h-89.265625a0,0 0 0 1 0,0v-16a5,5 0 0 1 5,-5z" style="stroke: rgb(0, 0, 0); fill: rgb(51, 85, 136); stroke-width: 0;"/><text x="6" y="15" style="font-family: -apple-system, BlinkMacSystemFont, &quot;Segoe WPC&quot;, &quot;Segoe UI&quot;, Ubuntu, &quot;Droid Sans&quot;, sans-serif, &quot;PingFang SC&quot;; font-size: 11px; text-rendering: geometricprecision; fill: rgb(255, 255, 255);">Conv</text><title>Conv_8</title></g><g class="node-attribute" transform="translate(0,21)"><path d="M0,0h89.265625a0,0 0 0 1 0,0v27a5,5 0 0 1 -5,5h-79.265625a5,5 0 0 1 -5,-5v-27a0,0 0 0 1 0,0z" style="stroke: rgb(0, 0, 0); fill: rgb(255, 255, 255); stroke-width: 0;"/><text id="initializer-model.11.weight" xml:space="preserve" x="6" y="13" style="font-family: -apple-system, BlinkMacSystemFont, &quot;Segoe WPC&quot;, &quot;Segoe UI&quot;, Ubuntu, &quot;Droid Sans&quot;, sans-serif, &quot;PingFang SC&quot;; font-size: 9px; font-weight: normal; text-rendering: geometricprecision;"><title>float32[1,512,4,4]</title><tspan style="font-weight: bold;">W</tspan><tspan>〈1×512×4×4〉</tspan></text><text id="initializer-model.11.bias" xml:space="preserve" x="6" y="26" style="font-family: -apple-system, BlinkMacSystemFont, &quot;Segoe WPC&quot;, &quot;Segoe UI&quot;, Ubuntu, &quot;Droid Sans&quot;, sans-serif, &quot;PingFang SC&quot;; font-size: 9px; font-weight: normal; text-rendering: geometricprecision;"><title>float32[1]</title><tspan style="font-weight: bold;">B</tspan><tspan>〈1〉</tspan></text><line class="node" x1="0" x2="89.265625" y1="0" y2="0" style="stroke: rgb(51, 51, 51); fill: none; stroke-width: 1px;"/></g><path class="node border" d="M5,0h79.265625a5,5 0 0 1 5,5v43a5,5 0 0 1 -5,5h-79.265625a5,5 0 0 1 -5,-5v-43a5,5 0 0 1 5,-5z" style="stroke: rgb(51, 51, 51); fill: none; stroke-width: 1px;"/></g><g class="node" transform="translate(37.109375,634.37890625)" style="opacity: 1;"><g class="node-item graph-item-output" transform="translate(0,0)"><path d="M5,0h18.109375a5,5 0 0 1 5,5v11a5,5 0 0 1 -5,5h-18.109375a5,5 0 0 1 -5,-5v-11a5,5 0 0 1 5,-5z" style="stroke: rgb(0, 0, 0); fill: rgb(238, 238, 238); stroke-width: 0;"/><text x="6" y="15" style="font-family: -apple-system, BlinkMacSystemFont, &quot;Segoe WPC&quot;, &quot;Segoe UI&quot;, Ubuntu, &quot;Droid Sans&quot;, sans-serif, &quot;PingFang SC&quot;; font-size: 11px; text-rendering: geometricprecision;">34</text><title>float32[1,1,30,30]</title></g><path class="node border" d="M5,0h18.109375a5,5 0 0 1 5,5v11a5,5 0 0 1 -5,5h-18.109375a5,5 0 0 1 -5,-5v-11a5,5 0 0 1 5,-5z" style="stroke: rgb(51, 51, 51); fill: none; stroke-width: 1px;"/></g></g></g></svg>